<svg width="90" height="90" viewBox="0 0 90 90" fill="none" xmlns="http://www.w3.org/2000/svg">
<path d="M31.2305 30C30.9216 30.9767 30.6678 31.9779 30.4727 33C27.7238 33.0147 25.5 35.2477 25.5 38C25.5 40.7614 27.7386 43 30.5 43H55V71C55 72.1046 54.1046 73 53 73H25C23.8954 73 23 72.1046 23 71V32C23 30.8954 23.8954 30 25 30H31.2305ZM28 62.5117C26.8956 62.5117 26.0003 63.4074 26 64.5117V65.7559C26 66.8604 26.8954 67.7559 28 67.7559H35C36.1046 67.7559 37 66.8604 37 65.7559V64.5117C36.9997 63.4074 36.1044 62.5117 35 62.5117H28ZM42.0488 65.6582C41.4697 65.6582 41.0002 66.1279 41 66.707C41 67.2863 41.4696 67.7559 42.0488 67.7559H49.9512C50.5304 67.7559 51 67.2863 51 66.707C50.9998 66.1279 50.5303 65.6582 49.9512 65.6582H42.0488ZM42.0488 62.5117C41.4697 62.5117 41.0002 62.9815 41 63.5605C41 64.1398 41.4696 64.6094 42.0488 64.6094H49.9512C50.5304 64.6094 51 64.1398 51 63.5605C50.9998 62.9815 50.5303 62.5117 49.9512 62.5117H42.0488ZM28 56.2197C26.8954 56.2197 26 57.1152 26 58.2197V59.4639C26.0002 60.5682 26.8956 61.4639 28 61.4639H35C36.1044 61.4639 36.9998 60.5682 37 59.4639V58.2197C37 57.1152 36.1046 56.2197 35 56.2197H28ZM42.0488 59.3662C41.4696 59.3662 41 59.8358 41 60.415C41.0002 60.9941 41.4697 61.4639 42.0488 61.4639H49.9512C50.5303 61.4639 50.9998 60.9941 51 60.415C51 59.8358 50.5304 59.3662 49.9512 59.3662H42.0488ZM42.0488 56.2197C41.4696 56.2197 41 56.6893 41 57.2686C41.0001 57.8477 41.4697 58.3174 42.0488 58.3174H49.9512C50.5303 58.3174 50.9999 57.8477 51 57.2686C51 56.6893 50.5304 56.2197 49.9512 56.2197H42.0488ZM28 49.9268C26.8955 49.9268 26 50.8222 26 51.9268V53.1709C26.0001 54.2754 26.8955 55.1709 28 55.1709H35C36.1045 55.1709 36.9999 54.2754 37 53.1709V51.9268C37 50.8222 36.1045 49.9268 35 49.9268H28ZM42.0488 53.0732C41.4696 53.0732 41 53.5428 41 54.1221C41.0001 54.7012 41.4696 55.1709 42.0488 55.1709H49.9512C50.5304 55.1709 50.9999 54.7012 51 54.1221C51 53.5428 50.5304 53.0732 49.9512 53.0732H42.0488ZM42.0488 49.9268C41.4696 49.9268 41 50.3964 41 50.9756C41 51.5548 41.4696 52.0244 42.0488 52.0244H49.9512C50.5304 52.0244 51 51.5548 51 50.9756C51 50.3964 50.5304 49.9268 49.9512 49.9268H42.0488Z" fill="#F472B6" fill-opacity="0.8"/>
<path d="M34 25H19C18.4477 25 18 25.4477 18 26V77C18 77.5523 18.4477 78 19 78H59C59.5523 78 60 77.5523 60 77V46C60 45.4477 60.4477 45 61 45H64.5" stroke="#8B5CF6" stroke-width="3" stroke-linecap="round"/>
<path d="M35 38C35 27.3177 42.7906 18.4549 53 16.7835M78 38C78 27.2411 70.0973 18.328 59.78 16.7486M53 16.7835C54.139 16.597 55.3082 16.5 56.5 16.5C57.6152 16.5 58.7106 16.5849 59.78 16.7486M53 16.7835V15.419C53 13.5307 54.5307 12 56.419 12C58.3693 12 59.9246 13.6289 59.8343 15.5772L59.78 16.7486" stroke="#8B5CF6" stroke-width="3" stroke-linecap="round"/>
<path d="M63.2715 45H80C81.933 45 83.5 43.433 83.5 41.5C83.5 39.567 81.933 38 80 38H30.5" stroke="#8B5CF6" stroke-width="3" stroke-linecap="round"/>
<path d="M59 22.2006C64.8752 23.1533 69.643 27.4087 71.3367 33" stroke="#F472B6" stroke-opacity="0.8" stroke-width="3" stroke-linecap="round"/>
</svg>
