<svg width="90" height="90" viewBox="0 0 90 90" fill="none" xmlns="http://www.w3.org/2000/svg">
<path d="M24.6862 43.421C21.8826 43.421 19.6001 41.1506 19.517 38.3178C19.5139 38.2122 19.5314 38.1067 19.5643 38.0062L22.392 29.3729C22.5266 28.9621 22.91 28.6842 23.3423 28.6842H31.9263M24.6862 43.421C27.5423 43.421 28.8234 41.8421 29.8577 38.1579C30.892 34.4737 31.9263 28.6842 31.9263 28.6842M24.6862 43.421V60.3158C24.6862 60.8681 25.1339 61.3158 25.6862 61.3158H37.0979M31.9263 28.6842H40.2008M40.2008 38.6842C40.2008 41.3003 38.1169 43.421 35.5464 43.421C32.9759 43.421 30.892 41.3003 30.892 38.6842V33.9474M40.2008 38.6842V28.6842M40.2008 38.6842C40.2008 41.3003 42.2846 43.421 44.8552 43.421C47.4257 43.421 49.5095 41.3003 49.5095 38.6842M40.2008 28.6842H41.7522H49.5095M49.5095 38.6842V28.6842M49.5095 38.6842C49.5095 41.3003 51.5934 43.421 54.1639 43.421C56.7345 43.421 58.8183 41.3003 58.8183 38.6842V33.9474M49.5095 28.6842H57.784M65.0242 43.421C67.8277 43.421 70.1103 41.1506 70.1933 38.3178C70.1964 38.2122 70.1789 38.1067 70.146 38.0062L67.3183 29.3729C67.1838 28.9621 66.8004 28.6842 66.368 28.6842H57.784M65.0242 43.421C62.168 43.421 60.8869 41.8421 59.8526 38.1579C58.8183 34.4737 57.784 28.6842 57.784 28.6842M65.0242 43.421V60.3158C65.0242 60.8681 64.5764 61.3158 64.0242 61.3158H51.5782M37.0979 61.3158V49.6842C37.0979 49.1319 37.5456 48.6842 38.0979 48.6842H50.5782C51.1304 48.6842 51.5782 49.1319 51.5782 49.6842V61.3158M37.0979 61.3158H51.5782" stroke="#F472B6" stroke-opacity="0.8" stroke-width="3"/>
<path d="M4.00006 67.1053H9.17154M85.9999 67.1053H9.17154M9.17154 67.1053H4.2897C2.93873 68.9664 6.47468 74.867 11.5298 75H78.4702C83.5253 74.867 87.0613 68.9664 85.7103 67.1053H9.17154Z" stroke="#8B5CF6" stroke-width="3"/>
<path d="M10.2058 65.5263V21.3158M80.5387 65.5263V21.3158M80.5387 21.3158V20C80.5387 17.2386 78.3001 15 75.5387 15H15.2058C12.4444 15 10.2058 17.2386 10.2058 20V21.3158M80.5387 21.3158H10.2058" stroke="#8B5CF6" stroke-width="3"/>
</svg>
