<svg width="90" height="90" viewBox="0 0 90 90" fill="none" xmlns="http://www.w3.org/2000/svg">
<path d="M84 43.5V25C84 22.2386 81.7614 20 79 20H9C6.23858 20 4 22.2386 4 25V61.875C4 64.6364 6.23858 66.875 9 66.875H60.5" stroke="#8B5CF6" stroke-width="3" stroke-linecap="round"/>
<path d="M80.2704 50.7292C78.7401 49.7387 76.9342 49.1667 75 49.1667C69.4772 49.1667 65 53.8304 65 59.5833C65 65.3363 69.4772 70 75 70C80.1853 70 84.4489 65.8889 84.9506 60.625" stroke="#8B5CF6" stroke-width="3" stroke-linecap="round"/>
<path d="M70 58.5417L73.5572 62.2471C74.3443 63.067 75.6557 63.067 76.4428 62.2471L86 52.2917" stroke="#8B5CF6" stroke-width="3" stroke-linecap="round"/>
<path d="M47 32.5H72.5M47 41.875H66.5M47 51.25H61" stroke="#F472B6" stroke-opacity="0.8" stroke-width="3" stroke-linecap="round"/>
<rect x="12" y="30.4167" width="8" height="8.33333" stroke="#F472B6" stroke-opacity="0.8" stroke-width="3"/>
<rect x="29" y="30.4167" width="8" height="8.33333" stroke="#F472B6" stroke-opacity="0.8" stroke-width="3"/>
<rect x="12" y="48.125" width="8" height="8.33333" stroke="#F472B6" stroke-opacity="0.8" stroke-width="3"/>
<path d="M15.5 43.4375H23M24.5 52.8125C24.5 53.2292 24.5 57.6736 24.5 58.0208M24.5 41.875V37.1875M12 41.875V45M34.5 45V58.0208M24.5 45V48.125M30 50.7292V52.2917M30 58.0208V52.2917M37 41.875V45M27.5 41.875V45M27.5 48.125V51.25M30 52.2917H38.5M24.5 32.5V35.625M32 41.875V45V43.4375V41.875Z" stroke="#F472B6" stroke-opacity="0.8" stroke-width="3"/>
</svg>
